<?xml version="1.0" encoding="utf-8"?><svg xmlns="http://www.w3.org/2000/svg" xmlns:xlink="http://www.w3.org/1999/xlink"><symbol viewBox="0 0 344.96 344.96" id="check" xmlns="http://www.w3.org/2000/svg"><g data-name="Слой 2"><path d="M321.85 86.24l-40-23.11-23.1-40H212.5L172.48 0l-40 23.11H86.24l-23.11 40-40 23.1v46.21L0 172.48l23.11 40v46.21l40 23.11 23.11 40h46.21l40 23.1 40-23.11h46.21l23.11-40 40-23.11V212.5l23.11-40-23.11-40V86.24zM156.91 243.07a16.79 16.79 0 0 1-23.34 0l-50.45-50.44a16.19 16.19 0 0 1 0-22.89l13.35-13.35a16.19 16.19 0 0 1 22.89 0l25.87 25.87 80.34-80.35a16.19 16.19 0 0 1 22.89 0l13.35 13.35a16.19 16.19 0 0 1 0 22.89z" data-name="Capa 1"/></g></symbol><symbol viewBox="0 0 297 550" id="chevron-left" xmlns="http://www.w3.org/2000/svg"><defs><path id="ba" d="M262.88 545.31c3.796 3.793 8.542 5.69 13.763 5.69 5.22 0 9.966-1.897 13.763-5.69 7.594-7.588 7.594-19.918 0-27.506L48.359 275.948 290.406 34.092c7.594-7.587 7.594-19.917 0-27.505-7.594-7.587-19.933-7.587-27.527 0L6.594 262.196C-1 269.783-1 282.113 6.594 289.7z"/></defs><use xlink:href="#ba" transform="translate(0 -1)"/></symbol><symbol viewBox="0 0 90 58" id="email" xmlns="http://www.w3.org/2000/svg"><g data-name="Слой 2"><path d="M3 5.43l37.5 20.14a10.76 10.76 0 0 0 9.06 0L87 5.43C89.47 4.12 91.78 0 87.3 0H2.7C-1.78 0 .53 4.12 3 5.43zm85.09 10L49.53 35.57a8.53 8.53 0 0 1-4.53 1 8.53 8.53 0 0 1-4.53-1L1.94 15.43c-2-1-1.94.17-1.94 1.1v36.68C0 55.3 2.79 58 5 58h80c2.17 0 5-2.7 5-4.79V16.53c0-.93 0-2.12-1.94-1.1z" data-name="All glyphs"/></g></symbol><symbol viewBox="0 0 27 27" id="instagram" xmlns="http://www.w3.org/2000/svg"><defs><path id="da" d="M1310 11240.45v12.098c0 4.108-3.343 7.451-7.451 7.451h-12.098c-4.109 0-7.451-3.343-7.451-7.451v-12.098c0-4.109 3.342-7.452 7.45-7.452h12.099c4.108 0 7.451 3.343 7.45 7.452zm-2.396 12.098v-12.098a5.061 5.061 0 0 0-5.055-5.056h-12.098a5.061 5.061 0 0 0-5.056 5.056v12.098a5.062 5.062 0 0 0 5.056 5.056h12.098a5.062 5.062 0 0 0 5.055-5.056zm-4.147-6.049a6.965 6.965 0 0 1-6.957 6.957 6.965 6.965 0 0 1-6.957-6.957 6.965 6.965 0 0 1 6.957-6.957 6.965 6.965 0 0 1 6.957 6.957zm-2.395 0a4.567 4.567 0 0 0-4.562-4.562 4.567 4.567 0 0 0-4.562 4.562 4.567 4.567 0 0 0 4.562 4.562 4.567 4.567 0 0 0 4.562-4.562zm3.93-8.474c.327.326.514.779.514 1.242 0 .462-.187.915-.515 1.243a1.771 1.771 0 0 1-1.242.514 1.77 1.77 0 0 1-1.241-.514 1.771 1.771 0 0 1-.516-1.243c0-.463.188-.916.516-1.242.326-.327.78-.514 1.24-.514.464 0 .918.187 1.243.514z"/></defs><g transform="translate(-1283 -11233)"><use xlink:href="#da"/><use xlink:href="#da"/></g></symbol><symbol viewBox="0 0 80 80" id="tel" xmlns="http://www.w3.org/2000/svg"><g data-name="Слой 2"><path d="M46.14 46.14C38.23 54.06 29.06 61.63 25.43 58c-5.19-5.19-8.38-9.7-19.82-.51S3 72.81 8 77.84c5.8 5.8 27.42.3 48.79-21.06S83.64 13.78 77.84 8c-5-5-11.16-13.81-20.35-2.37s-4.68 14.61.51 19.8c3.63 3.63-3.94 12.79-11.86 20.71z" data-name="All glyphs"/></g></symbol></svg>