<svg xmlns="http://www.w3.org/2000/svg" xmlns:xlink="http://www.w3.org/1999/xlink" width="27" height="27" viewBox="0 0 27 27"><defs><path id="e8lfa" d="M1310 11240.45v12.098c0 4.108-3.343 7.451-7.451 7.451h-12.098c-4.109 0-7.451-3.343-7.451-7.451v-12.098c0-4.109 3.342-7.452 7.45-7.452h12.099c4.108 0 7.451 3.343 7.45 7.452zm-2.396 12.098v-12.098a5.061 5.061 0 0 0-5.055-5.056h-12.098a5.061 5.061 0 0 0-5.056 5.056v12.098a5.062 5.062 0 0 0 5.056 5.056h12.098a5.062 5.062 0 0 0 5.055-5.056zm-4.147-6.049a6.965 6.965 0 0 1-6.957 6.957 6.965 6.965 0 0 1-6.957-6.957 6.965 6.965 0 0 1 6.957-6.957 6.965 6.965 0 0 1 6.957 6.957zm-2.395 0a4.567 4.567 0 0 0-4.562-4.562 4.567 4.567 0 0 0-4.562 4.562 4.567 4.567 0 0 0 4.562 4.562 4.567 4.567 0 0 0 4.562-4.562zm3.93-8.474c.327.326.514.779.514 1.242 0 .462-.187.915-.515 1.243-.327.326-.779.514-1.242.514a1.77 1.77 0 0 1-1.241-.514 1.771 1.771 0 0 1-.516-1.243c0-.463.188-.916.516-1.242.326-.327.78-.514 1.24-.514.464 0 .918.187 1.243.514z"/></defs><g><g transform="translate(-1283 -11233)"><use xlink:href="#e8lfa"/><use fill="#535353" xlink:href="#e8lfa"/></g></g></svg>